<?xml version="1.0" encoding="UTF-8" standalone="no"?>
<!DOCTYPE svg PUBLIC "-//W3C//DTD SVG 1.1//EN"
 "http://www.w3.org/Graphics/SVG/1.1/DTD/svg11.dtd">
<!-- Generated by graphviz version 2.38.0 (20140413.2041)
 -->
<!-- Title: G Pages: 1 -->
<svg width="1204pt" height="2254pt"
 viewBox="0.00 0.00 1204.43 2254.00" xmlns="http://www.w3.org/2000/svg" xmlns:xlink="http://www.w3.org/1999/xlink">
<g id="graph0" class="graph" transform="scale(1 1) rotate(0) translate(4 2250)">
<title>G</title>
<polygon fill="white" stroke="none" points="-4,4 -4,-2250 1200.43,-2250 1200.43,4 -4,4"/>
<g id="clust1" class="cluster"><title>cluster_Global</title>
<path fill="none" stroke="gray" d="M120.483,-368C120.483,-368 1176.43,-368 1176.43,-368 1182.43,-368 1188.43,-374 1188.43,-380 1188.43,-380 1188.43,-2226 1188.43,-2226 1188.43,-2232 1182.43,-2238 1176.43,-2238 1176.43,-2238 120.483,-2238 120.483,-2238 114.483,-2238 108.483,-2232 108.483,-2226 108.483,-2226 108.483,-380 108.483,-380 108.483,-374 114.483,-368 120.483,-368"/>
<text text-anchor="middle" x="648.455" y="-2225.2" font-family="Times,serif" font-size="11.00" fill="gray">Global</text>
</g>
<g id="clust2" class="cluster"><title>cluster_\Dms</title>
<path fill="none" stroke="gray" d="M128.483,-376C128.483,-376 1168.43,-376 1168.43,-376 1174.43,-376 1180.43,-382 1180.43,-388 1180.43,-388 1180.43,-2198 1180.43,-2198 1180.43,-2204 1174.43,-2210 1168.43,-2210 1168.43,-2210 128.483,-2210 128.483,-2210 122.483,-2210 116.483,-2204 116.483,-2198 116.483,-2198 116.483,-388 116.483,-388 116.483,-382 122.483,-376 128.483,-376"/>
<text text-anchor="middle" x="648.455" y="-2197.2" font-family="Times,serif" font-size="11.00" fill="gray">Dms</text>
</g>
<g id="clust3" class="cluster"><title>cluster_\Dms\Service</title>
<path fill="none" stroke="gray" d="M1014.43,-2110C1014.43,-2110 1090.43,-2110 1090.43,-2110 1096.43,-2110 1102.43,-2116 1102.43,-2122 1102.43,-2122 1102.43,-2170 1102.43,-2170 1102.43,-2176 1096.43,-2182 1090.43,-2182 1090.43,-2182 1014.43,-2182 1014.43,-2182 1008.43,-2182 1002.43,-2176 1002.43,-2170 1002.43,-2170 1002.43,-2122 1002.43,-2122 1002.43,-2116 1008.43,-2110 1014.43,-2110"/>
<text text-anchor="middle" x="1052.43" y="-2169.2" font-family="Times,serif" font-size="11.00" fill="gray">Service</text>
</g>
<g id="clust4" class="cluster"><title>cluster_\Dms\Document</title>
<path fill="none" stroke="gray" d="M997.428,-1868C997.428,-1868 1107.43,-1868 1107.43,-1868 1113.43,-1868 1119.43,-1874 1119.43,-1880 1119.43,-1880 1119.43,-2090 1119.43,-2090 1119.43,-2096 1113.43,-2102 1107.43,-2102 1107.43,-2102 997.428,-2102 997.428,-2102 991.428,-2102 985.428,-2096 985.428,-2090 985.428,-2090 985.428,-1880 985.428,-1880 985.428,-1874 991.428,-1868 997.428,-1868"/>
<text text-anchor="middle" x="1052.43" y="-2089.2" font-family="Times,serif" font-size="11.00" fill="gray">Document</text>
</g>
<g id="clust5" class="cluster"><title>cluster_\Dms\FFmpeg</title>
<path fill="none" stroke="gray" d="M1027.93,-1788C1027.93,-1788 1076.93,-1788 1076.93,-1788 1082.93,-1788 1088.93,-1794 1088.93,-1800 1088.93,-1800 1088.93,-1848 1088.93,-1848 1088.93,-1854 1082.93,-1860 1076.93,-1860 1076.93,-1860 1027.93,-1860 1027.93,-1860 1021.93,-1860 1015.93,-1854 1015.93,-1848 1015.93,-1848 1015.93,-1800 1015.93,-1800 1015.93,-1794 1021.93,-1788 1027.93,-1788"/>
<text text-anchor="middle" x="1052.43" y="-1847.2" font-family="Times,serif" font-size="11.00" fill="gray">FFmpeg</text>
</g>
<g id="clust6" class="cluster"><title>cluster_\Dms\Controller</title>
<path fill="none" stroke="gray" d="M987.428,-598C987.428,-598 1117.43,-598 1117.43,-598 1123.43,-598 1129.43,-604 1129.43,-610 1129.43,-610 1129.43,-794 1129.43,-794 1129.43,-800 1123.43,-806 1117.43,-806 1117.43,-806 987.428,-806 987.428,-806 981.428,-806 975.428,-800 975.428,-794 975.428,-794 975.428,-610 975.428,-610 975.428,-604 981.428,-598 987.428,-598"/>
<text text-anchor="middle" x="1052.43" y="-793.2" font-family="Times,serif" font-size="11.00" fill="gray">Controller</text>
</g>
<g id="clust7" class="cluster"><title>cluster_\Dms\Controller\Plugin</title>
<path fill="none" stroke="gray" d="M1014.43,-652C1014.43,-652 1090.43,-652 1090.43,-652 1096.43,-652 1102.43,-658 1102.43,-664 1102.43,-664 1102.43,-766 1102.43,-766 1102.43,-772 1096.43,-778 1090.43,-778 1090.43,-778 1014.43,-778 1014.43,-778 1008.43,-778 1002.43,-772 1002.43,-766 1002.43,-766 1002.43,-664 1002.43,-664 1002.43,-658 1008.43,-652 1014.43,-652"/>
<text text-anchor="middle" x="1052.43" y="-765.2" font-family="Times,serif" font-size="11.00" fill="gray">Plugin</text>
</g>
<g id="clust8" class="cluster"><title>cluster_\Dms\Resize</title>
<path fill="none" stroke="gray" d="M1007.43,-464C1007.43,-464 1097.43,-464 1097.43,-464 1103.43,-464 1109.43,-470 1109.43,-476 1109.43,-476 1109.43,-578 1109.43,-578 1109.43,-584 1103.43,-590 1097.43,-590 1097.43,-590 1007.43,-590 1007.43,-590 1001.43,-590 995.428,-584 995.428,-578 995.428,-578 995.428,-476 995.428,-476 995.428,-470 1001.43,-464 1007.43,-464"/>
<text text-anchor="middle" x="1052.43" y="-577.2" font-family="Times,serif" font-size="11.00" fill="gray">Resize</text>
</g>
<g id="clust9" class="cluster"><title>cluster_\Dms\Coding</title>
<path fill="none" stroke="gray" d="M618.197,-1218C618.197,-1218 1160.43,-1218 1160.43,-1218 1166.43,-1218 1172.43,-1224 1172.43,-1230 1172.43,-1230 1172.43,-1768 1172.43,-1768 1172.43,-1774 1166.43,-1780 1160.43,-1780 1160.43,-1780 618.197,-1780 618.197,-1780 612.197,-1780 606.197,-1774 606.197,-1768 606.197,-1768 606.197,-1230 606.197,-1230 606.197,-1224 612.197,-1218 618.197,-1218"/>
<text text-anchor="middle" x="889.312" y="-1767.2" font-family="Times,serif" font-size="11.00" fill="gray">Coding</text>
</g>
<g id="clust10" class="cluster"><title>cluster_\Dms\Coding\Base</title>
<path fill="none" stroke="gray" d="M1029.43,-1520C1029.43,-1520 1075.43,-1520 1075.43,-1520 1081.43,-1520 1087.43,-1526 1087.43,-1532 1087.43,-1532 1087.43,-1580 1087.43,-1580 1087.43,-1586 1081.43,-1592 1075.43,-1592 1075.43,-1592 1029.43,-1592 1029.43,-1592 1023.43,-1592 1017.43,-1586 1017.43,-1580 1017.43,-1580 1017.43,-1532 1017.43,-1532 1017.43,-1526 1023.43,-1520 1029.43,-1520"/>
<text text-anchor="middle" x="1052.43" y="-1579.2" font-family="Times,serif" font-size="11.00" fill="gray">Base</text>
</g>
<g id="clust11" class="cluster"><title>cluster_\Dms\Coding\Gzip</title>
<path fill="none" stroke="gray" d="M1029.43,-1440C1029.43,-1440 1075.43,-1440 1075.43,-1440 1081.43,-1440 1087.43,-1446 1087.43,-1452 1087.43,-1452 1087.43,-1500 1087.43,-1500 1087.43,-1506 1081.43,-1512 1075.43,-1512 1075.43,-1512 1029.43,-1512 1029.43,-1512 1023.43,-1512 1017.43,-1506 1017.43,-1500 1017.43,-1500 1017.43,-1452 1017.43,-1452 1017.43,-1446 1023.43,-1440 1029.43,-1440"/>
<text text-anchor="middle" x="1052.43" y="-1499.2" font-family="Times,serif" font-size="11.00" fill="gray">Gzip</text>
</g>
<g id="clust12" class="cluster"><title>cluster_\Dms\Coding\Zlib</title>
<path fill="none" stroke="gray" d="M1029.43,-1680C1029.43,-1680 1075.43,-1680 1075.43,-1680 1081.43,-1680 1087.43,-1686 1087.43,-1692 1087.43,-1692 1087.43,-1740 1087.43,-1740 1087.43,-1746 1081.43,-1752 1075.43,-1752 1075.43,-1752 1029.43,-1752 1029.43,-1752 1023.43,-1752 1017.43,-1746 1017.43,-1740 1017.43,-1740 1017.43,-1692 1017.43,-1692 1017.43,-1686 1023.43,-1680 1029.43,-1680"/>
<text text-anchor="middle" x="1052.43" y="-1739.2" font-family="Times,serif" font-size="11.00" fill="gray">Zlib</text>
</g>
<g id="clust13" class="cluster"><title>cluster_\Dms\Coding\Url</title>
<path fill="none" stroke="gray" d="M952.428,-1226C952.428,-1226 1152.43,-1226 1152.43,-1226 1158.43,-1226 1164.43,-1232 1164.43,-1238 1164.43,-1238 1164.43,-1420 1164.43,-1420 1164.43,-1426 1158.43,-1432 1152.43,-1432 1152.43,-1432 952.428,-1432 952.428,-1432 946.428,-1432 940.428,-1426 940.428,-1420 940.428,-1420 940.428,-1238 940.428,-1238 940.428,-1232 946.428,-1226 952.428,-1226"/>
<text text-anchor="middle" x="1052.43" y="-1419.2" font-family="Times,serif" font-size="11.00" fill="gray">Url</text>
</g>
<g id="clust14" class="cluster"><title>cluster_\Dms\Coding\Url\Exception</title>
<path fill="none" stroke="gray" d="M960.428,-1234C960.428,-1234 1144.43,-1234 1144.43,-1234 1150.43,-1234 1156.43,-1240 1156.43,-1246 1156.43,-1246 1156.43,-1348 1156.43,-1348 1156.43,-1354 1150.43,-1360 1144.43,-1360 1144.43,-1360 960.428,-1360 960.428,-1360 954.428,-1360 948.428,-1354 948.428,-1348 948.428,-1348 948.428,-1246 948.428,-1246 948.428,-1240 954.428,-1234 960.428,-1234"/>
<text text-anchor="middle" x="1052.43" y="-1347.2" font-family="Times,serif" font-size="11.00" fill="gray">Exception</text>
</g>
<g id="clust15" class="cluster"><title>cluster_\Dms\Coding\Deflate</title>
<path fill="none" stroke="gray" d="M1024.43,-1600C1024.43,-1600 1080.43,-1600 1080.43,-1600 1086.43,-1600 1092.43,-1606 1092.43,-1612 1092.43,-1612 1092.43,-1660 1092.43,-1660 1092.43,-1666 1086.43,-1672 1080.43,-1672 1080.43,-1672 1024.43,-1672 1024.43,-1672 1018.43,-1672 1012.43,-1666 1012.43,-1660 1012.43,-1660 1012.43,-1612 1012.43,-1612 1012.43,-1606 1018.43,-1600 1024.43,-1600"/>
<text text-anchor="middle" x="1052.43" y="-1659.2" font-family="Times,serif" font-size="11.00" fill="gray">Deflate</text>
</g>
<g id="clust16" class="cluster"><title>cluster_\Dms\Convert</title>
<path fill="none" stroke="gray" d="M985.928,-814C985.928,-814 1118.93,-814 1118.93,-814 1124.93,-814 1130.93,-820 1130.93,-826 1130.93,-826 1130.93,-1064 1130.93,-1064 1130.93,-1070 1124.93,-1076 1118.93,-1076 1118.93,-1076 985.928,-1076 985.928,-1076 979.928,-1076 973.928,-1070 973.928,-1064 973.928,-1064 973.928,-826 973.928,-826 973.928,-820 979.928,-814 985.928,-814"/>
<text text-anchor="middle" x="1052.43" y="-1063.2" font-family="Times,serif" font-size="11.00" fill="gray">Convert</text>
</g>
<g id="clust17" class="cluster"><title>cluster_\Dms\Convert\Exception</title>
<path fill="none" stroke="gray" d="M993.928,-922C993.928,-922 1110.93,-922 1110.93,-922 1116.93,-922 1122.93,-928 1122.93,-934 1122.93,-934 1122.93,-1036 1122.93,-1036 1122.93,-1042 1116.93,-1048 1110.93,-1048 1110.93,-1048 993.928,-1048 993.928,-1048 987.928,-1048 981.928,-1042 981.928,-1036 981.928,-1036 981.928,-934 981.928,-934 981.928,-928 987.928,-922 993.928,-922"/>
<text text-anchor="middle" x="1052.43" y="-1035.2" font-family="Times,serif" font-size="11.00" fill="gray">Exception</text>
</g>
<g id="clust18" class="cluster"><title>cluster_\Dms\ServiceFactory</title>
<path fill="none" stroke="gray" d="M1004.43,-384C1004.43,-384 1100.43,-384 1100.43,-384 1106.43,-384 1112.43,-390 1112.43,-396 1112.43,-396 1112.43,-444 1112.43,-444 1112.43,-450 1106.43,-456 1100.43,-456 1100.43,-456 1004.43,-456 1004.43,-456 998.428,-456 992.428,-450 992.428,-444 992.428,-444 992.428,-396 992.428,-396 992.428,-390 998.428,-384 1004.43,-384"/>
<text text-anchor="middle" x="1052.43" y="-443.2" font-family="Times,serif" font-size="11.00" fill="gray">ServiceFactory</text>
</g>
<g id="clust19" class="cluster"><title>cluster_\Dms\Storage</title>
<path fill="none" stroke="gray" d="M136.483,-1084C136.483,-1084 1100.43,-1084 1100.43,-1084 1106.43,-1084 1112.43,-1090 1112.43,-1096 1112.43,-1096 1112.43,-1198 1112.43,-1198 1112.43,-1204 1106.43,-1210 1100.43,-1210 1100.43,-1210 136.483,-1210 136.483,-1210 130.483,-1210 124.483,-1204 124.483,-1198 124.483,-1198 124.483,-1096 124.483,-1096 124.483,-1090 130.483,-1084 136.483,-1084"/>
<text text-anchor="middle" x="618.455" y="-1197.2" font-family="Times,serif" font-size="11.00" fill="gray">Storage</text>
</g>
<!-- \\Dms\\Service\\DmsService -->
<g id="node1" class="node"><title>\\Dms\\Service\\DmsService</title>
<polygon fill="none" stroke="black" points="1094.43,-2154 1010.43,-2154 1010.43,-2118 1094.43,-2118 1094.43,-2154"/>
<text text-anchor="middle" x="1052.43" y="-2133.2" font-family="Courier,monospace" font-size="11.00">DmsService</text>
</g>
<!-- \\Dms\\Document\\NoFileException -->
<g id="node2" class="node"><title>\\Dms\\Document\\NoFileException</title>
<polygon fill="none" stroke="black" points="1111.43,-2074 993.428,-2074 993.428,-2038 1111.43,-2038 1111.43,-2074"/>
<text text-anchor="middle" x="1052.43" y="-2053.2" font-family="Courier,monospace" font-size="11.00">NoFileException</text>
</g>
<!-- \\Exception -->
<g id="node29" class="node"><title>\\Exception</title>
<ellipse fill="none" stroke="black" cx="673.197" cy="-288" rx="48.9926" ry="18"/>
<text text-anchor="middle" x="673.197" y="-284.3" font-family="Times,serif" font-size="14.00" fill="gray">\Exception</text>
</g>
<!-- \\Dms\\Document\\NoFileException&#45;&gt;\\Exception -->
<g id="edge1" class="edge"><title>\\Dms\\Document\\NoFileException&#45;&gt;\\Exception</title>
<path fill="none" stroke="black" d="M993.391,-2055.53C973.597,-2052.25 953.249,-2044.78 940.428,-2029 820.255,-1881.13 1012.61,-455.987 884.428,-315 845.371,-272.041 774.601,-271.779 726.045,-277.902"/>
<polygon fill="none" stroke="black" points="725.463,-274.449 716.04,-279.292 726.426,-281.383 725.463,-274.449"/>
</g>
<!-- \\Dms\\Document\\MimeType -->
<g id="node3" class="node"><title>\\Dms\\Document\\MimeType</title>
<polygon fill="none" stroke="black" points="1087.93,-2020 1016.93,-2020 1016.93,-1984 1087.93,-1984 1087.93,-2020"/>
<text text-anchor="middle" x="1052.43" y="-1999.2" font-family="Courier,monospace" font-size="11.00">MimeType</text>
</g>
<!-- \\Dms\\Document\\Manager -->
<g id="node4" class="node"><title>\\Dms\\Document\\Manager</title>
<polygon fill="none" stroke="black" points="1084.43,-1966 1020.43,-1966 1020.43,-1930 1084.43,-1930 1084.43,-1966"/>
<text text-anchor="middle" x="1052.43" y="-1945.2" font-family="Courier,monospace" font-size="11.00">Manager</text>
</g>
<!-- \\Dms\\Document\\Document -->
<g id="node5" class="node"><title>\\Dms\\Document\\Document</title>
<polygon fill="none" stroke="black" points="1087.93,-1912 1016.93,-1912 1016.93,-1876 1087.93,-1876 1087.93,-1912"/>
<text text-anchor="middle" x="1052.43" y="-1891.2" font-family="Courier,monospace" font-size="11.00">Document</text>
</g>
<!-- \\Serializable -->
<g id="node30" class="node"><title>\\Serializable</title>
<ellipse fill="none" stroke="black" cx="673.197" cy="-342" rx="54.6905" ry="18"/>
<text text-anchor="middle" x="673.197" y="-338.3" font-family="Times,serif" font-size="14.00" fill="gray">\Serializable</text>
</g>
<!-- \\Dms\\Document\\Document&#45;&gt;\\Serializable -->
<g id="edge2" class="edge"><title>\\Dms\\Document\\Document&#45;&gt;\\Serializable</title>
<path fill="none" stroke="black" stroke-dasharray="1,5" d="M1016.77,-1894.54C991.541,-1892.91 958.705,-1886.19 940.428,-1864 884.9,-1796.59 899.583,-1166.01 884.428,-1080 834.464,-796.442 719.023,-465.664 684.273,-369.499"/>
<polygon fill="none" stroke="black" points="687.504,-368.141 680.803,-359.935 680.923,-370.529 687.504,-368.141"/>
</g>
<!-- \\Dms\\FFmpeg\\FFmpeg -->
<g id="node6" class="node"><title>\\Dms\\FFmpeg\\FFmpeg</title>
<polygon fill="none" stroke="black" points="1080.93,-1832 1023.93,-1832 1023.93,-1796 1080.93,-1796 1080.93,-1832"/>
<text text-anchor="middle" x="1052.43" y="-1811.2" font-family="Courier,monospace" font-size="11.00">FFmpeg</text>
</g>
<!-- \\Dms\\Controller\\Plugin\\Dms -->
<g id="node7" class="node"><title>\\Dms\\Controller\\Plugin\\Dms</title>
<polygon fill="none" stroke="black" points="1079.43,-750 1025.43,-750 1025.43,-714 1079.43,-714 1079.43,-750"/>
<text text-anchor="middle" x="1052.43" y="-729.2" font-family="Courier,monospace" font-size="11.00">Dms</text>
</g>
<!-- \\Zend\\Mvc\\Controller\\Plugin\\AbstractPlugin -->
<g id="node31" class="node"><title>\\Zend\\Mvc\\Controller\\Plugin\\AbstractPlugin</title>
<ellipse fill="none" stroke="black" cx="673.197" cy="-180" rx="168.97" ry="18"/>
<text text-anchor="middle" x="673.197" y="-176.3" font-family="Times,serif" font-size="14.00" fill="gray">\Zend\Mvc\Controller\Plugin\AbstractPlugin</text>
</g>
<!-- \\Dms\\Controller\\Plugin\\Dms&#45;&gt;\\Zend\\Mvc\\Controller\\Plugin\\AbstractPlugin -->
<g id="edge3" class="edge"><title>\\Dms\\Controller\\Plugin\\Dms&#45;&gt;\\Zend\\Mvc\\Controller\\Plugin\\AbstractPlugin</title>
<path fill="none" stroke="black" d="M1025.16,-733.503C999.517,-733.407 961.401,-728.813 940.428,-705 793.216,-537.858 1040.68,-365.728 884.428,-207 874.914,-197.335 863.782,-189.893 851.695,-184.235"/>
<polygon fill="none" stroke="black" points="852.85,-180.923 842.277,-180.248 850.122,-187.369 852.85,-180.923"/>
</g>
<!-- \\Dms\\Controller\\Plugin\\DmsFactory -->
<g id="node8" class="node"><title>\\Dms\\Controller\\Plugin\\DmsFactory</title>
<polygon fill="none" stroke="black" points="1094.43,-696 1010.43,-696 1010.43,-660 1094.43,-660 1094.43,-696"/>
<text text-anchor="middle" x="1052.43" y="-675.2" font-family="Courier,monospace" font-size="11.00">DmsFactory</text>
</g>
<!-- \\Zend\\ServiceManager\\Factory\\FactoryInterface -->
<g id="node32" class="node"><title>\\Zend\\ServiceManager\\Factory\\FactoryInterface</title>
<ellipse fill="none" stroke="black" cx="673.197" cy="-126" rx="181.168" ry="18"/>
<text text-anchor="middle" x="673.197" y="-122.3" font-family="Times,serif" font-size="14.00" fill="gray">\Zend\ServiceManager\Factory\FactoryInterface</text>
</g>
<!-- \\Dms\\Controller\\Plugin\\DmsFactory&#45;&gt;\\Zend\\ServiceManager\\Factory\\FactoryInterface -->
<g id="edge4" class="edge"><title>\\Dms\\Controller\\Plugin\\DmsFactory&#45;&gt;\\Zend\\ServiceManager\\Factory\\FactoryInterface</title>
<path fill="none" stroke="black" stroke-dasharray="1,5" d="M1010.33,-680.943C986.496,-680.27 957.838,-674.953 940.428,-656 788.257,-490.348 1042.14,-313.389 884.428,-153 877.172,-145.62 868.972,-139.536 860.125,-134.552"/>
<polygon fill="none" stroke="black" points="861.569,-131.36 851.072,-129.928 858.385,-137.594 861.569,-131.36"/>
</g>
<!-- \\Dms\\Controller\\DocumentController -->
<g id="node9" class="node"><title>\\Dms\\Controller\\DocumentController</title>
<polygon fill="none" stroke="black" points="1121.43,-642 983.428,-642 983.428,-606 1121.43,-606 1121.43,-642"/>
<text text-anchor="middle" x="1052.43" y="-621.2" font-family="Courier,monospace" font-size="11.00">DocumentController</text>
</g>
<!-- \\Zend\\Mvc\\Controller\\AbstractActionController -->
<g id="node33" class="node"><title>\\Zend\\Mvc\\Controller\\AbstractActionController</title>
<ellipse fill="none" stroke="black" cx="673.197" cy="-72" rx="180.868" ry="18"/>
<text text-anchor="middle" x="673.197" y="-68.3" font-family="Times,serif" font-size="14.00" fill="gray">\Zend\Mvc\Controller\AbstractActionController</text>
</g>
<!-- \\Dms\\Controller\\DocumentController&#45;&gt;\\Zend\\Mvc\\Controller\\AbstractActionController -->
<g id="edge5" class="edge"><title>\\Dms\\Controller\\DocumentController&#45;&gt;\\Zend\\Mvc\\Controller\\AbstractActionController</title>
<path fill="none" stroke="black" d="M983.236,-618.795C967.062,-614.321 951.355,-606.719 940.428,-594 796.153,-426.059 1039.8,-256.732 884.428,-99 877.068,-91.5285 868.742,-85.386 859.755,-80.3691"/>
<polygon fill="none" stroke="black" points="861.062,-77.1083 850.559,-75.7198 857.904,-83.3553 861.062,-77.1083"/>
</g>
<!-- \\Dms\\Resize\\Resize -->
<g id="node10" class="node"><title>\\Dms\\Resize\\Resize</title>
<polygon fill="none" stroke="black" points="1080.93,-562 1023.93,-562 1023.93,-526 1080.93,-526 1080.93,-562"/>
<text text-anchor="middle" x="1052.43" y="-541.2" font-family="Courier,monospace" font-size="11.00">Resize</text>
</g>
<!-- \\Dms\\Resize\\ResizeOption -->
<g id="node11" class="node"><title>\\Dms\\Resize\\ResizeOption</title>
<polygon fill="none" stroke="black" points="1101.43,-508 1003.43,-508 1003.43,-472 1101.43,-472 1101.43,-508"/>
<text text-anchor="middle" x="1052.43" y="-487.2" font-family="Courier,monospace" font-size="11.00">ResizeOption</text>
</g>
<!-- \\Zend\\Stdlib\\AbstractOptions -->
<g id="node34" class="node"><title>\\Zend\\Stdlib\\AbstractOptions</title>
<ellipse fill="none" stroke="black" cx="673.197" cy="-234" rx="114.28" ry="18"/>
<text text-anchor="middle" x="673.197" y="-230.3" font-family="Times,serif" font-size="14.00" fill="gray">\Zend\Stdlib\AbstractOptions</text>
</g>
<!-- \\Dms\\Resize\\ResizeOption&#45;&gt;\\Zend\\Stdlib\\AbstractOptions -->
<g id="edge6" class="edge"><title>\\Dms\\Resize\\ResizeOption&#45;&gt;\\Zend\\Stdlib\\AbstractOptions</title>
<path fill="none" stroke="black" d="M1003.19,-487.557C981.43,-484.042 956.957,-476.359 940.428,-460 875.124,-395.368 953.98,-321.037 884.428,-261 856.165,-236.604 817.282,-227.304 780.637,-224.967"/>
<polygon fill="none" stroke="black" points="780.524,-221.458 770.371,-224.486 780.196,-228.45 780.524,-221.458"/>
</g>
<!-- \\Dms\\Coding\\Base\\Base -->
<g id="node12" class="node"><title>\\Dms\\Coding\\Base\\Base</title>
<polygon fill="none" stroke="black" points="1079.43,-1564 1025.43,-1564 1025.43,-1528 1079.43,-1528 1079.43,-1564"/>
<text text-anchor="middle" x="1052.43" y="-1543.2" font-family="Courier,monospace" font-size="11.00">Base</text>
</g>
<!-- \\Dms\\Coding\\CodingInterface -->
<g id="node19" class="node"><title>\\Dms\\Coding\\CodingInterface</title>
<polygon fill="none" stroke="black" points="732.197,-1564 614.197,-1564 614.197,-1528 732.197,-1528 732.197,-1564"/>
<text text-anchor="middle" x="673.197" y="-1543.2" font-family="Courier,monospace" font-size="11.00">CodingInterface</text>
</g>
<!-- \\Dms\\Coding\\Base\\Base&#45;&gt;\\Dms\\Coding\\CodingInterface -->
<g id="edge7" class="edge"><title>\\Dms\\Coding\\Base\\Base&#45;&gt;\\Dms\\Coding\\CodingInterface</title>
<path fill="none" stroke="black" stroke-dasharray="1,5" d="M1025.2,-1546C967.32,-1546 827.079,-1546 742.424,-1546"/>
<polygon fill="none" stroke="black" points="742.385,-1542.5 732.385,-1546 742.385,-1549.5 742.385,-1542.5"/>
</g>
<!-- \\Dms\\Coding\\Gzip\\Gzip -->
<g id="node13" class="node"><title>\\Dms\\Coding\\Gzip\\Gzip</title>
<polygon fill="none" stroke="black" points="1079.43,-1484 1025.43,-1484 1025.43,-1448 1079.43,-1448 1079.43,-1484"/>
<text text-anchor="middle" x="1052.43" y="-1463.2" font-family="Courier,monospace" font-size="11.00">Gzip</text>
</g>
<!-- \\Dms\\Coding\\Gzip\\Gzip&#45;&gt;\\Dms\\Coding\\CodingInterface -->
<g id="edge8" class="edge"><title>\\Dms\\Coding\\Gzip\\Gzip&#45;&gt;\\Dms\\Coding\\CodingInterface</title>
<path fill="none" stroke="black" stroke-dasharray="1,5" d="M1025.2,-1471.56C967.32,-1483.84 827.079,-1513.58 742.424,-1531.53"/>
<polygon fill="none" stroke="black" points="741.442,-1528.16 732.385,-1533.66 742.894,-1535.01 741.442,-1528.16"/>
</g>
<!-- \\Dms\\Coding\\Zlib\\Zlib -->
<g id="node14" class="node"><title>\\Dms\\Coding\\Zlib\\Zlib</title>
<polygon fill="none" stroke="black" points="1079.43,-1724 1025.43,-1724 1025.43,-1688 1079.43,-1688 1079.43,-1724"/>
<text text-anchor="middle" x="1052.43" y="-1703.2" font-family="Courier,monospace" font-size="11.00">Zlib</text>
</g>
<!-- \\Dms\\Coding\\Zlib\\Zlib&#45;&gt;\\Dms\\Coding\\CodingInterface -->
<g id="edge9" class="edge"><title>\\Dms\\Coding\\Zlib\\Zlib&#45;&gt;\\Dms\\Coding\\CodingInterface</title>
<path fill="none" stroke="black" stroke-dasharray="1,5" d="M1025.42,-1700.45C1002.64,-1695.24 968.835,-1686.66 940.428,-1676 857.749,-1644.96 766.22,-1597.08 714.901,-1568.91"/>
<polygon fill="none" stroke="black" points="716.55,-1565.83 706.103,-1564.06 713.169,-1571.96 716.55,-1565.83"/>
</g>
<!-- \\Dms\\Coding\\Url\\Exception\\ForbiddenDocumentException -->
<g id="node15" class="node"><title>\\Dms\\Coding\\Url\\Exception\\ForbiddenDocumentException</title>
<polygon fill="none" stroke="black" points="1148.43,-1332 956.428,-1332 956.428,-1296 1148.43,-1296 1148.43,-1332"/>
<text text-anchor="middle" x="1052.43" y="-1311.2" font-family="Courier,monospace" font-size="11.00">ForbiddenDocumentException</text>
</g>
<!-- \\Dms\\Coding\\Url\\Exception\\ForbiddenDocumentException&#45;&gt;\\Exception -->
<g id="edge11" class="edge"><title>\\Dms\\Coding\\Url\\Exception\\ForbiddenDocumentException&#45;&gt;\\Exception</title>
<path fill="none" stroke="black" d="M956.022,-1300.3C950.176,-1296.71 944.872,-1292.33 940.428,-1287 801.897,-1120.81 1031.95,-473.262 884.428,-315 844.956,-272.656 774.611,-272.157 726.24,-278.065"/>
<polygon fill="none" stroke="black" points="725.713,-274.605 716.271,-279.411 726.649,-281.542 725.713,-274.605"/>
</g>
<!-- \\Dms\\Coding\\Url\\Exception\\ErrorDocumentException -->
<g id="node16" class="node"><title>\\Dms\\Coding\\Url\\Exception\\ErrorDocumentException</title>
<polygon fill="none" stroke="black" points="1134.93,-1278 969.928,-1278 969.928,-1242 1134.93,-1242 1134.93,-1278"/>
<text text-anchor="middle" x="1052.43" y="-1257.2" font-family="Courier,monospace" font-size="11.00">ErrorDocumentException</text>
</g>
<!-- \\Dms\\Coding\\Url\\Exception\\ErrorDocumentException&#45;&gt;\\Exception -->
<g id="edge12" class="edge"><title>\\Dms\\Coding\\Url\\Exception\\ErrorDocumentException&#45;&gt;\\Exception</title>
<path fill="none" stroke="black" d="M975.639,-1241.95C961.929,-1235.33 949.216,-1226.31 940.428,-1214 824.114,-1051.1 1021.25,-461.098 884.428,-315 844.858,-272.749 774.535,-272.228 726.196,-278.106"/>
<polygon fill="none" stroke="black" points="725.678,-274.644 716.234,-279.445 726.611,-281.582 725.678,-274.644"/>
</g>
<!-- \\Dms\\Coding\\Url\\Url -->
<g id="node17" class="node"><title>\\Dms\\Coding\\Url\\Url</title>
<polygon fill="none" stroke="black" points="1079.43,-1404 1025.43,-1404 1025.43,-1368 1079.43,-1368 1079.43,-1404"/>
<text text-anchor="middle" x="1052.43" y="-1383.2" font-family="Courier,monospace" font-size="11.00">Url</text>
</g>
<!-- \\Dms\\Coding\\Url\\Url&#45;&gt;\\Dms\\Coding\\CodingInterface -->
<g id="edge10" class="edge"><title>\\Dms\\Coding\\Url\\Url&#45;&gt;\\Dms\\Coding\\CodingInterface</title>
<path fill="none" stroke="black" stroke-dasharray="1,5" d="M1025.2,-1397.12C963.467,-1423.31 808.041,-1489.23 726.296,-1523.9"/>
<polygon fill="none" stroke="black" points="724.544,-1520.84 716.704,-1527.97 727.277,-1527.29 724.544,-1520.84"/>
</g>
<!-- \\Dms\\Coding\\Deflate\\Deflate -->
<g id="node18" class="node"><title>\\Dms\\Coding\\Deflate\\Deflate</title>
<polygon fill="none" stroke="black" points="1084.43,-1644 1020.43,-1644 1020.43,-1608 1084.43,-1608 1084.43,-1644"/>
<text text-anchor="middle" x="1052.43" y="-1623.2" font-family="Courier,monospace" font-size="11.00">Deflate</text>
</g>
<!-- \\Dms\\Coding\\Deflate\\Deflate&#45;&gt;\\Dms\\Coding\\CodingInterface -->
<g id="edge13" class="edge"><title>\\Dms\\Coding\\Deflate\\Deflate&#45;&gt;\\Dms\\Coding\\CodingInterface</title>
<path fill="none" stroke="black" stroke-dasharray="1,5" d="M1020.24,-1619.39C959.656,-1606.54 824.819,-1577.94 742.488,-1560.48"/>
<polygon fill="none" stroke="black" points="742.978,-1557.01 732.47,-1558.36 741.526,-1563.86 742.978,-1557.01"/>
</g>
<!-- \\Dms\\Convert\\Exception\\ProcessException -->
<g id="node20" class="node"><title>\\Dms\\Convert\\Exception\\ProcessException</title>
<polygon fill="none" stroke="black" points="1114.93,-1020 989.928,-1020 989.928,-984 1114.93,-984 1114.93,-1020"/>
<text text-anchor="middle" x="1052.43" y="-999.2" font-family="Courier,monospace" font-size="11.00">ProcessException</text>
</g>
<!-- \\Dms\\Convert\\Exception\\ProcessException&#45;&gt;\\Exception -->
<g id="edge14" class="edge"><title>\\Dms\\Convert\\Exception\\ProcessException&#45;&gt;\\Exception</title>
<path fill="none" stroke="black" d="M989.776,-1000.43C971.327,-996.793 952.751,-989.383 940.428,-975 844.659,-863.222 986.243,-421.299 884.428,-315 844.505,-273.319 774.588,-272.577 726.415,-278.255"/>
<polygon fill="none" stroke="black" points="725.947,-274.786 716.484,-279.551 726.853,-281.727 725.947,-274.786"/>
</g>
<!-- \\Dms\\Convert\\Exception\\ConvertException -->
<g id="node21" class="node"><title>\\Dms\\Convert\\Exception\\ConvertException</title>
<polygon fill="none" stroke="black" points="1114.93,-966 989.928,-966 989.928,-930 1114.93,-930 1114.93,-966"/>
<text text-anchor="middle" x="1052.43" y="-945.2" font-family="Courier,monospace" font-size="11.00">ConvertException</text>
</g>
<!-- \\Dms\\Convert\\Exception\\ConvertException&#45;&gt;\\Exception -->
<g id="edge15" class="edge"><title>\\Dms\\Convert\\Exception\\ConvertException&#45;&gt;\\Exception</title>
<path fill="none" stroke="black" d="M989.762,-949.294C971.426,-946.471 952.919,-939.867 940.428,-926 849.171,-824.695 979.072,-413.147 884.428,-315 844.365,-273.454 774.479,-272.681 726.352,-278.315"/>
<polygon fill="none" stroke="black" points="725.898,-274.845 716.431,-279.603 726.798,-281.787 725.898,-274.845"/>
</g>
<!-- \\Dms\\Convert\\Process -->
<g id="node22" class="node"><title>\\Dms\\Convert\\Process</title>
<polygon fill="none" stroke="black" points="1084.43,-912 1020.43,-912 1020.43,-876 1084.43,-876 1084.43,-912"/>
<text text-anchor="middle" x="1052.43" y="-891.2" font-family="Courier,monospace" font-size="11.00">Process</text>
</g>
<!-- \\Dms\\Convert\\Convert -->
<g id="node23" class="node"><title>\\Dms\\Convert\\Convert</title>
<polygon fill="none" stroke="black" points="1084.43,-858 1020.43,-858 1020.43,-822 1084.43,-822 1084.43,-858"/>
<text text-anchor="middle" x="1052.43" y="-837.2" font-family="Courier,monospace" font-size="11.00">Convert</text>
</g>
<!-- \\Dms\\ServiceFactory\\CodingFactory -->
<g id="node24" class="node"><title>\\Dms\\ServiceFactory\\CodingFactory</title>
<polygon fill="none" stroke="black" points="1104.43,-428 1000.43,-428 1000.43,-392 1104.43,-392 1104.43,-428"/>
<text text-anchor="middle" x="1052.43" y="-407.2" font-family="Courier,monospace" font-size="11.00">CodingFactory</text>
</g>
<!-- \\Zend\\ServiceManager\\Factory\\AbstractFactoryInterface -->
<g id="node35" class="node"><title>\\Zend\\ServiceManager\\Factory\\AbstractFactoryInterface</title>
<ellipse fill="none" stroke="black" cx="673.197" cy="-18" rx="211.463" ry="18"/>
<text text-anchor="middle" x="673.197" y="-14.3" font-family="Times,serif" font-size="14.00" fill="gray">\Zend\ServiceManager\Factory\AbstractFactoryInterface</text>
</g>
<!-- \\Dms\\ServiceFactory\\CodingFactory&#45;&gt;\\Zend\\ServiceManager\\Factory\\AbstractFactoryInterface -->
<g id="edge16" class="edge"><title>\\Dms\\ServiceFactory\\CodingFactory&#45;&gt;\\Zend\\ServiceManager\\Factory\\AbstractFactoryInterface</title>
<path fill="none" stroke="black" stroke-dasharray="1,5" d="M1049.23,-391.748C1040.86,-330.904 1005.07,-133.838 884.428,-45 877.453,-39.8639 869.983,-35.4441 862.169,-31.6522"/>
<polygon fill="none" stroke="black" points="863.403,-28.3704 852.846,-27.484 860.546,-34.7608 863.403,-28.3704"/>
</g>
<!-- \\Dms\\Storage\\Storage -->
<g id="node25" class="node"><title>\\Dms\\Storage\\Storage</title>
<polygon fill="none" stroke="black" points="1084.43,-1182 1020.43,-1182 1020.43,-1146 1084.43,-1146 1084.43,-1182"/>
<text text-anchor="middle" x="1052.43" y="-1161.2" font-family="Courier,monospace" font-size="11.00">Storage</text>
</g>
<!-- \\Dms\\Storage\\AbstractStorage -->
<g id="node27" class="node"><title>\\Dms\\Storage\\AbstractStorage</title>
<polygon fill="none" stroke="black" points="732.197,-1155 614.197,-1155 614.197,-1119 732.197,-1119 732.197,-1155"/>
<text text-anchor="start" x="639.197" y="-1140.2" font-family="Courier,monospace" font-size="11.00">«abstract»</text>
<text text-anchor="start" x="622.197" y="-1128.2" font-family="Courier,monospace" font-size="11.00">AbstractStorage</text>
</g>
<!-- \\Dms\\Storage\\Storage&#45;&gt;\\Dms\\Storage\\AbstractStorage -->
<g id="edge17" class="edge"><title>\\Dms\\Storage\\Storage&#45;&gt;\\Dms\\Storage\\AbstractStorage</title>
<path fill="none" stroke="black" d="M1020.24,-1161.77C959.656,-1157.43 824.819,-1147.78 742.488,-1141.89"/>
<polygon fill="none" stroke="black" points="742.694,-1138.39 732.47,-1141.17 742.194,-1145.38 742.694,-1138.39"/>
</g>
<!-- \\Dms\\Storage\\StorageOption -->
<g id="node26" class="node"><title>\\Dms\\Storage\\StorageOption</title>
<polygon fill="none" stroke="black" points="1104.43,-1128 1000.43,-1128 1000.43,-1092 1104.43,-1092 1104.43,-1128"/>
<text text-anchor="middle" x="1052.43" y="-1107.2" font-family="Courier,monospace" font-size="11.00">StorageOption</text>
</g>
<!-- \\Dms\\Storage\\StorageOption&#45;&gt;\\Zend\\Stdlib\\AbstractOptions -->
<g id="edge18" class="edge"><title>\\Dms\\Storage\\StorageOption&#45;&gt;\\Zend\\Stdlib\\AbstractOptions</title>
<path fill="none" stroke="black" d="M1000.26,-1095.75C978.129,-1086.86 954.19,-1073.01 940.428,-1052 843.858,-904.599 1005.43,-389.108 884.428,-261 855.016,-229.86 808.886,-221.456 767.322,-221.551"/>
<polygon fill="none" stroke="black" points="767.079,-218.055 757.146,-221.74 767.209,-225.054 767.079,-218.055"/>
</g>
<!-- \\Dms\\Storage\\StorageInterface -->
<g id="node28" class="node"><title>\\Dms\\Storage\\StorageInterface</title>
<polygon fill="none" stroke="black" points="257.483,-1155 132.483,-1155 132.483,-1119 257.483,-1119 257.483,-1155"/>
<text text-anchor="middle" x="194.983" y="-1134.2" font-family="Courier,monospace" font-size="11.00">StorageInterface</text>
</g>
<!-- \\Dms\\Storage\\AbstractStorage&#45;&gt;\\Dms\\Storage\\StorageInterface -->
<g id="edge20" class="edge"><title>\\Dms\\Storage\\AbstractStorage&#45;&gt;\\Dms\\Storage\\StorageInterface</title>
<path fill="none" stroke="black" stroke-dasharray="1,5" d="M613.803,-1137C526.457,-1137 361.972,-1137 267.53,-1137"/>
<polygon fill="none" stroke="black" points="267.492,-1133.5 257.492,-1137 267.492,-1140.5 267.492,-1133.5"/>
</g>
<!-- \\Zend\\EventManager\\EventManagerAwareInterface -->
<g id="node36" class="node"><title>\\Zend\\EventManager\\EventManagerAwareInterface</title>
<ellipse fill="none" stroke="black" cx="194.983" cy="-342" rx="194.965" ry="18"/>
<text text-anchor="middle" x="194.983" y="-338.3" font-family="Times,serif" font-size="14.00" fill="gray">\Zend\EventManager\EventManagerAwareInterface</text>
</g>
<!-- \\Dms\\Storage\\AbstractStorage&#45;&gt;\\Zend\\EventManager\\EventManagerAwareInterface -->
<g id="edge19" class="edge"><title>\\Dms\\Storage\\AbstractStorage&#45;&gt;\\Zend\\EventManager\\EventManagerAwareInterface</title>
<path fill="none" stroke="black" stroke-dasharray="1,5" d="M661.356,-1118.9C599.022,-1014.84 286.454,-493.035 211.946,-368.649"/>
<polygon fill="none" stroke="black" points="214.948,-366.85 206.807,-360.07 208.943,-370.447 214.948,-366.85"/>
</g>
</g>
</svg>
