<?xml version="1.0" encoding="UTF-8" standalone="no"?>
<!DOCTYPE svg PUBLIC "-//W3C//DTD SVG 1.1//EN"
 "http://www.w3.org/Graphics/SVG/1.1/DTD/svg11.dtd">
<!-- Generated by graphviz version 2.38.0 (20140413.2041)
 -->
<!-- Title: G Pages: 1 -->
<svg width="1204pt" height="2254pt"
 viewBox="0.00 0.00 1204.43 2254.00" xmlns="http://www.w3.org/2000/svg" xmlns:xlink="http://www.w3.org/1999/xlink">
<g id="graph0" class="graph" transform="scale(1 1) rotate(0) translate(4 2250)">
<title>G</title>
<polygon fill="white" stroke="none" points="-4,4 -4,-2250 1200.43,-2250 1200.43,4 -4,4"/>
<g id="clust1" class="cluster"><title>cluster_Global</title>
<path fill="none" stroke="gray" d="M120.483,-368C120.483,-368 1176.43,-368 1176.43,-368 1182.43,-368 1188.43,-374 1188.43,-380 1188.43,-380 1188.43,-2226 1188.43,-2226 1188.43,-2232 1182.43,-2238 1176.43,-2238 1176.43,-2238 120.483,-2238 120.483,-2238 114.483,-2238 108.483,-2232 108.483,-2226 108.483,-2226 108.483,-380 108.483,-380 108.483,-374 114.483,-368 120.483,-368"/>
<text text-anchor="middle" x="648.455" y="-2225.2" font-family="Times,serif" font-size="11.00" fill="gray">Global</text>
</g>
<g id="clust2" class="cluster"><title>cluster_\Dms</title>
<path fill="none" stroke="gray" d="M128.483,-376C128.483,-376 1168.43,-376 1168.43,-376 1174.43,-376 1180.43,-382 1180.43,-388 1180.43,-388 1180.43,-2198 1180.43,-2198 1180.43,-2204 1174.43,-2210 1168.43,-2210 1168.43,-2210 128.483,-2210 128.483,-2210 122.483,-2210 116.483,-2204 116.483,-2198 116.483,-2198 116.483,-388 116.483,-388 116.483,-382 122.483,-376 128.483,-376"/>
<text text-anchor="middle" x="648.455" y="-2197.2" font-family="Times,serif" font-size="11.00" fill="gray">Dms</text>
</g>
<g id="clust3" class="cluster"><title>cluster_\Dms\ServiceFactory</title>
<path fill="none" stroke="gray" d="M1004.43,-1406C1004.43,-1406 1100.43,-1406 1100.43,-1406 1106.43,-1406 1112.43,-1412 1112.43,-1418 1112.43,-1418 1112.43,-1466 1112.43,-1466 1112.43,-1472 1106.43,-1478 1100.43,-1478 1100.43,-1478 1004.43,-1478 1004.43,-1478 998.428,-1478 992.428,-1472 992.428,-1466 992.428,-1466 992.428,-1418 992.428,-1418 992.428,-1412 998.428,-1406 1004.43,-1406"/>
<text text-anchor="middle" x="1052.43" y="-1465.2" font-family="Times,serif" font-size="11.00" fill="gray">ServiceFactory</text>
</g>
<g id="clust4" class="cluster"><title>cluster_\Dms\Resize</title>
<path fill="none" stroke="gray" d="M1007.43,-1272C1007.43,-1272 1097.43,-1272 1097.43,-1272 1103.43,-1272 1109.43,-1278 1109.43,-1284 1109.43,-1284 1109.43,-1386 1109.43,-1386 1109.43,-1392 1103.43,-1398 1097.43,-1398 1097.43,-1398 1007.43,-1398 1007.43,-1398 1001.43,-1398 995.428,-1392 995.428,-1386 995.428,-1386 995.428,-1284 995.428,-1284 995.428,-1278 1001.43,-1272 1007.43,-1272"/>
<text text-anchor="middle" x="1052.43" y="-1385.2" font-family="Times,serif" font-size="11.00" fill="gray">Resize</text>
</g>
<g id="clust5" class="cluster"><title>cluster_\Dms\Document</title>
<path fill="none" stroke="gray" d="M997.428,-1030C997.428,-1030 1107.43,-1030 1107.43,-1030 1113.43,-1030 1119.43,-1036 1119.43,-1042 1119.43,-1042 1119.43,-1252 1119.43,-1252 1119.43,-1258 1113.43,-1264 1107.43,-1264 1107.43,-1264 997.428,-1264 997.428,-1264 991.428,-1264 985.428,-1258 985.428,-1252 985.428,-1252 985.428,-1042 985.428,-1042 985.428,-1036 991.428,-1030 997.428,-1030"/>
<text text-anchor="middle" x="1052.43" y="-1251.2" font-family="Times,serif" font-size="11.00" fill="gray">Document</text>
</g>
<g id="clust6" class="cluster"><title>cluster_\Dms\Convert</title>
<path fill="none" stroke="gray" d="M985.928,-760C985.928,-760 1118.93,-760 1118.93,-760 1124.93,-760 1130.93,-766 1130.93,-772 1130.93,-772 1130.93,-1010 1130.93,-1010 1130.93,-1016 1124.93,-1022 1118.93,-1022 1118.93,-1022 985.928,-1022 985.928,-1022 979.928,-1022 973.928,-1016 973.928,-1010 973.928,-1010 973.928,-772 973.928,-772 973.928,-766 979.928,-760 985.928,-760"/>
<text text-anchor="middle" x="1052.43" y="-1009.2" font-family="Times,serif" font-size="11.00" fill="gray">Convert</text>
</g>
<g id="clust7" class="cluster"><title>cluster_\Dms\Convert\Exception</title>
<path fill="none" stroke="gray" d="M993.928,-868C993.928,-868 1110.93,-868 1110.93,-868 1116.93,-868 1122.93,-874 1122.93,-880 1122.93,-880 1122.93,-982 1122.93,-982 1122.93,-988 1116.93,-994 1110.93,-994 1110.93,-994 993.928,-994 993.928,-994 987.928,-994 981.928,-988 981.928,-982 981.928,-982 981.928,-880 981.928,-880 981.928,-874 987.928,-868 993.928,-868"/>
<text text-anchor="middle" x="1052.43" y="-981.2" font-family="Times,serif" font-size="11.00" fill="gray">Exception</text>
</g>
<g id="clust8" class="cluster"><title>cluster_\Dms\Coding</title>
<path fill="none" stroke="gray" d="M618.197,-1620C618.197,-1620 1160.43,-1620 1160.43,-1620 1166.43,-1620 1172.43,-1626 1172.43,-1632 1172.43,-1632 1172.43,-2170 1172.43,-2170 1172.43,-2176 1166.43,-2182 1160.43,-2182 1160.43,-2182 618.197,-2182 618.197,-2182 612.197,-2182 606.197,-2176 606.197,-2170 606.197,-2170 606.197,-1632 606.197,-1632 606.197,-1626 612.197,-1620 618.197,-1620"/>
<text text-anchor="middle" x="889.312" y="-2169.2" font-family="Times,serif" font-size="11.00" fill="gray">Coding</text>
</g>
<g id="clust9" class="cluster"><title>cluster_\Dms\Coding\Deflate</title>
<path fill="none" stroke="gray" d="M1024.43,-1922C1024.43,-1922 1080.43,-1922 1080.43,-1922 1086.43,-1922 1092.43,-1928 1092.43,-1934 1092.43,-1934 1092.43,-1982 1092.43,-1982 1092.43,-1988 1086.43,-1994 1080.43,-1994 1080.43,-1994 1024.43,-1994 1024.43,-1994 1018.43,-1994 1012.43,-1988 1012.43,-1982 1012.43,-1982 1012.43,-1934 1012.43,-1934 1012.43,-1928 1018.43,-1922 1024.43,-1922"/>
<text text-anchor="middle" x="1052.43" y="-1981.2" font-family="Times,serif" font-size="11.00" fill="gray">Deflate</text>
</g>
<g id="clust10" class="cluster"><title>cluster_\Dms\Coding\Zlib</title>
<path fill="none" stroke="gray" d="M1029.43,-1842C1029.43,-1842 1075.43,-1842 1075.43,-1842 1081.43,-1842 1087.43,-1848 1087.43,-1854 1087.43,-1854 1087.43,-1902 1087.43,-1902 1087.43,-1908 1081.43,-1914 1075.43,-1914 1075.43,-1914 1029.43,-1914 1029.43,-1914 1023.43,-1914 1017.43,-1908 1017.43,-1902 1017.43,-1902 1017.43,-1854 1017.43,-1854 1017.43,-1848 1023.43,-1842 1029.43,-1842"/>
<text text-anchor="middle" x="1052.43" y="-1901.2" font-family="Times,serif" font-size="11.00" fill="gray">Zlib</text>
</g>
<g id="clust11" class="cluster"><title>cluster_\Dms\Coding\Url</title>
<path fill="none" stroke="gray" d="M952.428,-1628C952.428,-1628 1152.43,-1628 1152.43,-1628 1158.43,-1628 1164.43,-1634 1164.43,-1640 1164.43,-1640 1164.43,-1822 1164.43,-1822 1164.43,-1828 1158.43,-1834 1152.43,-1834 1152.43,-1834 952.428,-1834 952.428,-1834 946.428,-1834 940.428,-1828 940.428,-1822 940.428,-1822 940.428,-1640 940.428,-1640 940.428,-1634 946.428,-1628 952.428,-1628"/>
<text text-anchor="middle" x="1052.43" y="-1821.2" font-family="Times,serif" font-size="11.00" fill="gray">Url</text>
</g>
<g id="clust12" class="cluster"><title>cluster_\Dms\Coding\Url\Exception</title>
<path fill="none" stroke="gray" d="M960.428,-1636C960.428,-1636 1144.43,-1636 1144.43,-1636 1150.43,-1636 1156.43,-1642 1156.43,-1648 1156.43,-1648 1156.43,-1750 1156.43,-1750 1156.43,-1756 1150.43,-1762 1144.43,-1762 1144.43,-1762 960.428,-1762 960.428,-1762 954.428,-1762 948.428,-1756 948.428,-1750 948.428,-1750 948.428,-1648 948.428,-1648 948.428,-1642 954.428,-1636 960.428,-1636"/>
<text text-anchor="middle" x="1052.43" y="-1749.2" font-family="Times,serif" font-size="11.00" fill="gray">Exception</text>
</g>
<g id="clust13" class="cluster"><title>cluster_\Dms\Coding\Gzip</title>
<path fill="none" stroke="gray" d="M1029.43,-2082C1029.43,-2082 1075.43,-2082 1075.43,-2082 1081.43,-2082 1087.43,-2088 1087.43,-2094 1087.43,-2094 1087.43,-2142 1087.43,-2142 1087.43,-2148 1081.43,-2154 1075.43,-2154 1075.43,-2154 1029.43,-2154 1029.43,-2154 1023.43,-2154 1017.43,-2148 1017.43,-2142 1017.43,-2142 1017.43,-2094 1017.43,-2094 1017.43,-2088 1023.43,-2082 1029.43,-2082"/>
<text text-anchor="middle" x="1052.43" y="-2141.2" font-family="Times,serif" font-size="11.00" fill="gray">Gzip</text>
</g>
<g id="clust14" class="cluster"><title>cluster_\Dms\Coding\Base</title>
<path fill="none" stroke="gray" d="M1029.43,-2002C1029.43,-2002 1075.43,-2002 1075.43,-2002 1081.43,-2002 1087.43,-2008 1087.43,-2014 1087.43,-2014 1087.43,-2062 1087.43,-2062 1087.43,-2068 1081.43,-2074 1075.43,-2074 1075.43,-2074 1029.43,-2074 1029.43,-2074 1023.43,-2074 1017.43,-2068 1017.43,-2062 1017.43,-2062 1017.43,-2014 1017.43,-2014 1017.43,-2008 1023.43,-2002 1029.43,-2002"/>
<text text-anchor="middle" x="1052.43" y="-2061.2" font-family="Times,serif" font-size="11.00" fill="gray">Base</text>
</g>
<g id="clust15" class="cluster"><title>cluster_\Dms\Storage</title>
<path fill="none" stroke="gray" d="M136.483,-1486C136.483,-1486 1100.43,-1486 1100.43,-1486 1106.43,-1486 1112.43,-1492 1112.43,-1498 1112.43,-1498 1112.43,-1600 1112.43,-1600 1112.43,-1606 1106.43,-1612 1100.43,-1612 1100.43,-1612 136.483,-1612 136.483,-1612 130.483,-1612 124.483,-1606 124.483,-1600 124.483,-1600 124.483,-1498 124.483,-1498 124.483,-1492 130.483,-1486 136.483,-1486"/>
<text text-anchor="middle" x="618.455" y="-1599.2" font-family="Times,serif" font-size="11.00" fill="gray">Storage</text>
</g>
<g id="clust16" class="cluster"><title>cluster_\Dms\FFmpeg</title>
<path fill="none" stroke="gray" d="M1027.93,-680C1027.93,-680 1076.93,-680 1076.93,-680 1082.93,-680 1088.93,-686 1088.93,-692 1088.93,-692 1088.93,-740 1088.93,-740 1088.93,-746 1082.93,-752 1076.93,-752 1076.93,-752 1027.93,-752 1027.93,-752 1021.93,-752 1015.93,-746 1015.93,-740 1015.93,-740 1015.93,-692 1015.93,-692 1015.93,-686 1021.93,-680 1027.93,-680"/>
<text text-anchor="middle" x="1052.43" y="-739.2" font-family="Times,serif" font-size="11.00" fill="gray">FFmpeg</text>
</g>
<g id="clust17" class="cluster"><title>cluster_\Dms\Controller</title>
<path fill="none" stroke="gray" d="M987.428,-464C987.428,-464 1117.43,-464 1117.43,-464 1123.43,-464 1129.43,-470 1129.43,-476 1129.43,-476 1129.43,-660 1129.43,-660 1129.43,-666 1123.43,-672 1117.43,-672 1117.43,-672 987.428,-672 987.428,-672 981.428,-672 975.428,-666 975.428,-660 975.428,-660 975.428,-476 975.428,-476 975.428,-470 981.428,-464 987.428,-464"/>
<text text-anchor="middle" x="1052.43" y="-659.2" font-family="Times,serif" font-size="11.00" fill="gray">Controller</text>
</g>
<g id="clust18" class="cluster"><title>cluster_\Dms\Controller\Plugin</title>
<path fill="none" stroke="gray" d="M1014.43,-518C1014.43,-518 1090.43,-518 1090.43,-518 1096.43,-518 1102.43,-524 1102.43,-530 1102.43,-530 1102.43,-632 1102.43,-632 1102.43,-638 1096.43,-644 1090.43,-644 1090.43,-644 1014.43,-644 1014.43,-644 1008.43,-644 1002.43,-638 1002.43,-632 1002.43,-632 1002.43,-530 1002.43,-530 1002.43,-524 1008.43,-518 1014.43,-518"/>
<text text-anchor="middle" x="1052.43" y="-631.2" font-family="Times,serif" font-size="11.00" fill="gray">Plugin</text>
</g>
<g id="clust19" class="cluster"><title>cluster_\Dms\Service</title>
<path fill="none" stroke="gray" d="M1014.43,-384C1014.43,-384 1090.43,-384 1090.43,-384 1096.43,-384 1102.43,-390 1102.43,-396 1102.43,-396 1102.43,-444 1102.43,-444 1102.43,-450 1096.43,-456 1090.43,-456 1090.43,-456 1014.43,-456 1014.43,-456 1008.43,-456 1002.43,-450 1002.43,-444 1002.43,-444 1002.43,-396 1002.43,-396 1002.43,-390 1008.43,-384 1014.43,-384"/>
<text text-anchor="middle" x="1052.43" y="-443.2" font-family="Times,serif" font-size="11.00" fill="gray">Service</text>
</g>
<!-- \\Dms\\ServiceFactory\\CodingFactory -->
<g id="node1" class="node"><title>\\Dms\\ServiceFactory\\CodingFactory</title>
<polygon fill="none" stroke="black" points="1104.43,-1450 1000.43,-1450 1000.43,-1414 1104.43,-1414 1104.43,-1450"/>
<text text-anchor="middle" x="1052.43" y="-1429.2" font-family="Courier,monospace" font-size="11.00">CodingFactory</text>
</g>
<!-- \\Zend\\ServiceManager\\Factory\\AbstractFactoryInterface -->
<g id="node29" class="node"><title>\\Zend\\ServiceManager\\Factory\\AbstractFactoryInterface</title>
<ellipse fill="none" stroke="black" cx="673.197" cy="-342" rx="211.463" ry="18"/>
<text text-anchor="middle" x="673.197" y="-338.3" font-family="Times,serif" font-size="14.00" fill="gray">\Zend\ServiceManager\Factory\AbstractFactoryInterface</text>
</g>
<!-- \\Dms\\ServiceFactory\\CodingFactory&#45;&gt;\\Zend\\ServiceManager\\Factory\\AbstractFactoryInterface -->
<g id="edge1" class="edge"><title>\\Dms\\ServiceFactory\\CodingFactory&#45;&gt;\\Zend\\ServiceManager\\Factory\\AbstractFactoryInterface</title>
<path fill="none" stroke="black" stroke-dasharray="1,5" d="M1000.16,-1429.29C979.093,-1425.62 956.025,-1417.88 940.428,-1402 788.345,-1247.17 695.475,-522.632 677.432,-370.192"/>
<polygon fill="none" stroke="black" points="680.904,-369.745 676.263,-360.221 673.952,-370.561 680.904,-369.745"/>
</g>
<!-- \\Dms\\Resize\\Resize -->
<g id="node2" class="node"><title>\\Dms\\Resize\\Resize</title>
<polygon fill="none" stroke="black" points="1080.93,-1370 1023.93,-1370 1023.93,-1334 1080.93,-1334 1080.93,-1370"/>
<text text-anchor="middle" x="1052.43" y="-1349.2" font-family="Courier,monospace" font-size="11.00">Resize</text>
</g>
<!-- \\Dms\\Resize\\ResizeOption -->
<g id="node3" class="node"><title>\\Dms\\Resize\\ResizeOption</title>
<polygon fill="none" stroke="black" points="1101.43,-1316 1003.43,-1316 1003.43,-1280 1101.43,-1280 1101.43,-1316"/>
<text text-anchor="middle" x="1052.43" y="-1295.2" font-family="Courier,monospace" font-size="11.00">ResizeOption</text>
</g>
<!-- \\Zend\\Stdlib\\AbstractOptions -->
<g id="node33" class="node"><title>\\Zend\\Stdlib\\AbstractOptions</title>
<ellipse fill="none" stroke="black" cx="673.197" cy="-288" rx="114.28" ry="18"/>
<text text-anchor="middle" x="673.197" y="-284.3" font-family="Times,serif" font-size="14.00" fill="gray">\Zend\Stdlib\AbstractOptions</text>
</g>
<!-- \\Dms\\Resize\\ResizeOption&#45;&gt;\\Zend\\Stdlib\\AbstractOptions -->
<g id="edge19" class="edge"><title>\\Dms\\Resize\\ResizeOption&#45;&gt;\\Zend\\Stdlib\\AbstractOptions</title>
<path fill="none" stroke="black" d="M1003.24,-1297.29C980.665,-1294.27 955.479,-1286.51 940.428,-1268 806.578,-1103.41 1029.17,-470.095 884.428,-315 855.029,-283.498 808.54,-275.165 766.746,-275.397"/>
<polygon fill="none" stroke="black" points="766.437,-271.903 756.516,-275.621 766.591,-278.902 766.437,-271.903"/>
</g>
<!-- \\Dms\\Document\\MimeType -->
<g id="node4" class="node"><title>\\Dms\\Document\\MimeType</title>
<polygon fill="none" stroke="black" points="1087.93,-1236 1016.93,-1236 1016.93,-1200 1087.93,-1200 1087.93,-1236"/>
<text text-anchor="middle" x="1052.43" y="-1215.2" font-family="Courier,monospace" font-size="11.00">MimeType</text>
</g>
<!-- \\Dms\\Document\\Manager -->
<g id="node5" class="node"><title>\\Dms\\Document\\Manager</title>
<polygon fill="none" stroke="black" points="1084.43,-1182 1020.43,-1182 1020.43,-1146 1084.43,-1146 1084.43,-1182"/>
<text text-anchor="middle" x="1052.43" y="-1161.2" font-family="Courier,monospace" font-size="11.00">Manager</text>
</g>
<!-- \\Dms\\Document\\Document -->
<g id="node6" class="node"><title>\\Dms\\Document\\Document</title>
<polygon fill="none" stroke="black" points="1087.93,-1128 1016.93,-1128 1016.93,-1092 1087.93,-1092 1087.93,-1128"/>
<text text-anchor="middle" x="1052.43" y="-1107.2" font-family="Courier,monospace" font-size="11.00">Document</text>
</g>
<!-- \\Serializable -->
<g id="node31" class="node"><title>\\Serializable</title>
<ellipse fill="none" stroke="black" cx="673.197" cy="-234" rx="54.6905" ry="18"/>
<text text-anchor="middle" x="673.197" y="-230.3" font-family="Times,serif" font-size="14.00" fill="gray">\Serializable</text>
</g>
<!-- \\Dms\\Document\\Document&#45;&gt;\\Serializable -->
<g id="edge8" class="edge"><title>\\Dms\\Document\\Document&#45;&gt;\\Serializable</title>
<path fill="none" stroke="black" stroke-dasharray="1,5" d="M1016.85,-1111.56C991.65,-1110.65 958.828,-1104.84 940.428,-1083 822.463,-942.977 1009.97,-394.271 884.428,-261 845.913,-220.114 778.585,-218.386 730.498,-223.656"/>
<polygon fill="none" stroke="black" points="730.046,-220.185 720.546,-224.875 730.897,-227.133 730.046,-220.185"/>
</g>
<!-- \\Dms\\Document\\NoFileException -->
<g id="node7" class="node"><title>\\Dms\\Document\\NoFileException</title>
<polygon fill="none" stroke="black" points="1111.43,-1074 993.428,-1074 993.428,-1038 1111.43,-1038 1111.43,-1074"/>
<text text-anchor="middle" x="1052.43" y="-1053.2" font-family="Courier,monospace" font-size="11.00">NoFileException</text>
</g>
<!-- \\Exception -->
<g id="node30" class="node"><title>\\Exception</title>
<ellipse fill="none" stroke="black" cx="673.197" cy="-180" rx="48.9926" ry="18"/>
<text text-anchor="middle" x="673.197" y="-176.3" font-family="Times,serif" font-size="14.00" fill="gray">\Exception</text>
</g>
<!-- \\Dms\\Document\\NoFileException&#45;&gt;\\Exception -->
<g id="edge20" class="edge"><title>\\Dms\\Document\\NoFileException&#45;&gt;\\Exception</title>
<path fill="none" stroke="black" d="M993.317,-1038.82C973.265,-1029.91 952.76,-1016.82 940.428,-998 843.858,-850.599 1005.43,-335.108 884.428,-207 844.797,-165.041 774.814,-164.362 726.547,-170.13"/>
<polygon fill="none" stroke="black" points="726.05,-166.665 716.595,-171.446 726.968,-173.604 726.05,-166.665"/>
</g>
<!-- \\Dms\\Convert\\Exception\\ConvertException -->
<g id="node8" class="node"><title>\\Dms\\Convert\\Exception\\ConvertException</title>
<polygon fill="none" stroke="black" points="1114.93,-966 989.928,-966 989.928,-930 1114.93,-930 1114.93,-966"/>
<text text-anchor="middle" x="1052.43" y="-945.2" font-family="Courier,monospace" font-size="11.00">ConvertException</text>
</g>
<!-- \\Dms\\Convert\\Exception\\ConvertException&#45;&gt;\\Exception -->
<g id="edge2" class="edge"><title>\\Dms\\Convert\\Exception\\ConvertException&#45;&gt;\\Exception</title>
<path fill="none" stroke="black" d="M989.722,-946.476C971.27,-942.842 952.705,-935.422 940.428,-921 837.263,-799.81 994.15,-322.287 884.428,-207 844.638,-165.192 774.691,-164.478 726.475,-170.198"/>
<polygon fill="none" stroke="black" points="725.994,-166.731 716.535,-171.503 726.906,-173.671 725.994,-166.731"/>
</g>
<!-- \\Dms\\Convert\\Exception\\ProcessException -->
<g id="node9" class="node"><title>\\Dms\\Convert\\Exception\\ProcessException</title>
<polygon fill="none" stroke="black" points="1114.93,-912 989.928,-912 989.928,-876 1114.93,-876 1114.93,-912"/>
<text text-anchor="middle" x="1052.43" y="-891.2" font-family="Courier,monospace" font-size="11.00">ProcessException</text>
</g>
<!-- \\Dms\\Convert\\Exception\\ProcessException&#45;&gt;\\Exception -->
<g id="edge3" class="edge"><title>\\Dms\\Convert\\Exception\\ProcessException&#45;&gt;\\Exception</title>
<path fill="none" stroke="black" d="M989.702,-895.349C971.361,-892.529 952.868,-885.913 940.428,-872 841.578,-761.448 986.975,-314.132 884.428,-207 844.518,-165.307 774.598,-164.567 726.421,-170.249"/>
<polygon fill="none" stroke="black" points="725.952,-166.781 716.489,-171.547 726.859,-173.722 725.952,-166.781"/>
</g>
<!-- \\Dms\\Convert\\Convert -->
<g id="node10" class="node"><title>\\Dms\\Convert\\Convert</title>
<polygon fill="none" stroke="black" points="1084.43,-858 1020.43,-858 1020.43,-822 1084.43,-822 1084.43,-858"/>
<text text-anchor="middle" x="1052.43" y="-837.2" font-family="Courier,monospace" font-size="11.00">Convert</text>
</g>
<!-- \\Dms\\Convert\\Process -->
<g id="node11" class="node"><title>\\Dms\\Convert\\Process</title>
<polygon fill="none" stroke="black" points="1084.43,-804 1020.43,-804 1020.43,-768 1084.43,-768 1084.43,-804"/>
<text text-anchor="middle" x="1052.43" y="-783.2" font-family="Courier,monospace" font-size="11.00">Process</text>
</g>
<!-- \\Dms\\Coding\\Deflate\\Deflate -->
<g id="node12" class="node"><title>\\Dms\\Coding\\Deflate\\Deflate</title>
<polygon fill="none" stroke="black" points="1084.43,-1966 1020.43,-1966 1020.43,-1930 1084.43,-1930 1084.43,-1966"/>
<text text-anchor="middle" x="1052.43" y="-1945.2" font-family="Courier,monospace" font-size="11.00">Deflate</text>
</g>
<!-- \\Dms\\Coding\\CodingInterface -->
<g id="node19" class="node"><title>\\Dms\\Coding\\CodingInterface</title>
<polygon fill="none" stroke="black" points="732.197,-1966 614.197,-1966 614.197,-1930 732.197,-1930 732.197,-1966"/>
<text text-anchor="middle" x="673.197" y="-1945.2" font-family="Courier,monospace" font-size="11.00">CodingInterface</text>
</g>
<!-- \\Dms\\Coding\\Deflate\\Deflate&#45;&gt;\\Dms\\Coding\\CodingInterface -->
<g id="edge4" class="edge"><title>\\Dms\\Coding\\Deflate\\Deflate&#45;&gt;\\Dms\\Coding\\CodingInterface</title>
<path fill="none" stroke="black" stroke-dasharray="1,5" d="M1020.24,-1948C959.656,-1948 824.819,-1948 742.488,-1948"/>
<polygon fill="none" stroke="black" points="742.47,-1944.5 732.47,-1948 742.47,-1951.5 742.47,-1944.5"/>
</g>
<!-- \\Dms\\Coding\\Zlib\\Zlib -->
<g id="node13" class="node"><title>\\Dms\\Coding\\Zlib\\Zlib</title>
<polygon fill="none" stroke="black" points="1079.43,-1886 1025.43,-1886 1025.43,-1850 1079.43,-1850 1079.43,-1886"/>
<text text-anchor="middle" x="1052.43" y="-1865.2" font-family="Courier,monospace" font-size="11.00">Zlib</text>
</g>
<!-- \\Dms\\Coding\\Zlib\\Zlib&#45;&gt;\\Dms\\Coding\\CodingInterface -->
<g id="edge5" class="edge"><title>\\Dms\\Coding\\Zlib\\Zlib&#45;&gt;\\Dms\\Coding\\CodingInterface</title>
<path fill="none" stroke="black" stroke-dasharray="1,5" d="M1025.2,-1873.56C967.32,-1885.84 827.079,-1915.58 742.424,-1933.53"/>
<polygon fill="none" stroke="black" points="741.442,-1930.16 732.385,-1935.66 742.894,-1937.01 741.442,-1930.16"/>
</g>
<!-- \\Dms\\Coding\\Url\\Exception\\ForbiddenDocumentException -->
<g id="node14" class="node"><title>\\Dms\\Coding\\Url\\Exception\\ForbiddenDocumentException</title>
<polygon fill="none" stroke="black" points="1148.43,-1734 956.428,-1734 956.428,-1698 1148.43,-1698 1148.43,-1734"/>
<text text-anchor="middle" x="1052.43" y="-1713.2" font-family="Courier,monospace" font-size="11.00">ForbiddenDocumentException</text>
</g>
<!-- \\Dms\\Coding\\Url\\Exception\\ForbiddenDocumentException&#45;&gt;\\Exception -->
<g id="edge6" class="edge"><title>\\Dms\\Coding\\Url\\Exception\\ForbiddenDocumentException&#45;&gt;\\Exception</title>
<path fill="none" stroke="black" d="M956.404,-1702.7C950.387,-1699.04 944.945,-1694.53 940.428,-1689 836.176,-1561.39 995.591,-328.642 884.428,-207 845.261,-164.141 774.517,-163.856 725.996,-169.946"/>
<polygon fill="none" stroke="black" points="725.425,-166.492 715.999,-171.33 726.384,-173.426 725.425,-166.492"/>
</g>
<!-- \\Dms\\Coding\\Url\\Exception\\ErrorDocumentException -->
<g id="node15" class="node"><title>\\Dms\\Coding\\Url\\Exception\\ErrorDocumentException</title>
<polygon fill="none" stroke="black" points="1134.93,-1680 969.928,-1680 969.928,-1644 1134.93,-1644 1134.93,-1680"/>
<text text-anchor="middle" x="1052.43" y="-1659.2" font-family="Courier,monospace" font-size="11.00">ErrorDocumentException</text>
</g>
<!-- \\Dms\\Coding\\Url\\Exception\\ErrorDocumentException&#45;&gt;\\Exception -->
<g id="edge11" class="edge"><title>\\Dms\\Coding\\Url\\Exception\\ErrorDocumentException&#45;&gt;\\Exception</title>
<path fill="none" stroke="black" d="M975.142,-1643.96C961.556,-1637.35 949.017,-1628.32 940.428,-1616 850.823,-1487.47 990.236,-322.555 884.428,-207 845.219,-164.18 774.485,-163.885 725.978,-169.963"/>
<polygon fill="none" stroke="black" points="725.41,-166.508 715.983,-171.344 726.368,-173.442 725.41,-166.508"/>
</g>
<!-- \\Dms\\Coding\\Url\\Url -->
<g id="node16" class="node"><title>\\Dms\\Coding\\Url\\Url</title>
<polygon fill="none" stroke="black" points="1079.43,-1806 1025.43,-1806 1025.43,-1770 1079.43,-1770 1079.43,-1806"/>
<text text-anchor="middle" x="1052.43" y="-1785.2" font-family="Courier,monospace" font-size="11.00">Url</text>
</g>
<!-- \\Dms\\Coding\\Url\\Url&#45;&gt;\\Dms\\Coding\\CodingInterface -->
<g id="edge7" class="edge"><title>\\Dms\\Coding\\Url\\Url&#45;&gt;\\Dms\\Coding\\CodingInterface</title>
<path fill="none" stroke="black" stroke-dasharray="1,5" d="M1025.2,-1799.12C963.467,-1825.31 808.041,-1891.23 726.296,-1925.9"/>
<polygon fill="none" stroke="black" points="724.544,-1922.84 716.704,-1929.97 727.277,-1929.29 724.544,-1922.84"/>
</g>
<!-- \\Dms\\Coding\\Gzip\\Gzip -->
<g id="node17" class="node"><title>\\Dms\\Coding\\Gzip\\Gzip</title>
<polygon fill="none" stroke="black" points="1079.43,-2126 1025.43,-2126 1025.43,-2090 1079.43,-2090 1079.43,-2126"/>
<text text-anchor="middle" x="1052.43" y="-2105.2" font-family="Courier,monospace" font-size="11.00">Gzip</text>
</g>
<!-- \\Dms\\Coding\\Gzip\\Gzip&#45;&gt;\\Dms\\Coding\\CodingInterface -->
<g id="edge9" class="edge"><title>\\Dms\\Coding\\Gzip\\Gzip&#45;&gt;\\Dms\\Coding\\CodingInterface</title>
<path fill="none" stroke="black" stroke-dasharray="1,5" d="M1025.42,-2102.45C1002.64,-2097.24 968.835,-2088.66 940.428,-2078 857.749,-2046.96 766.22,-1999.08 714.901,-1970.91"/>
<polygon fill="none" stroke="black" points="716.55,-1967.83 706.103,-1966.06 713.169,-1973.96 716.55,-1967.83"/>
</g>
<!-- \\Dms\\Coding\\Base\\Base -->
<g id="node18" class="node"><title>\\Dms\\Coding\\Base\\Base</title>
<polygon fill="none" stroke="black" points="1079.43,-2046 1025.43,-2046 1025.43,-2010 1079.43,-2010 1079.43,-2046"/>
<text text-anchor="middle" x="1052.43" y="-2025.2" font-family="Courier,monospace" font-size="11.00">Base</text>
</g>
<!-- \\Dms\\Coding\\Base\\Base&#45;&gt;\\Dms\\Coding\\CodingInterface -->
<g id="edge13" class="edge"><title>\\Dms\\Coding\\Base\\Base&#45;&gt;\\Dms\\Coding\\CodingInterface</title>
<path fill="none" stroke="black" stroke-dasharray="1,5" d="M1025.2,-2022.44C967.32,-2010.16 827.079,-1980.42 742.424,-1962.47"/>
<polygon fill="none" stroke="black" points="742.894,-1958.99 732.385,-1960.34 741.442,-1965.84 742.894,-1958.99"/>
</g>
<!-- \\Dms\\Storage\\Storage -->
<g id="node20" class="node"><title>\\Dms\\Storage\\Storage</title>
<polygon fill="none" stroke="black" points="1084.43,-1584 1020.43,-1584 1020.43,-1548 1084.43,-1548 1084.43,-1584"/>
<text text-anchor="middle" x="1052.43" y="-1563.2" font-family="Courier,monospace" font-size="11.00">Storage</text>
</g>
<!-- \\Dms\\Storage\\AbstractStorage -->
<g id="node22" class="node"><title>\\Dms\\Storage\\AbstractStorage</title>
<polygon fill="none" stroke="black" points="732.197,-1557 614.197,-1557 614.197,-1521 732.197,-1521 732.197,-1557"/>
<text text-anchor="start" x="639.197" y="-1542.2" font-family="Courier,monospace" font-size="11.00">«abstract»</text>
<text text-anchor="start" x="622.197" y="-1530.2" font-family="Courier,monospace" font-size="11.00">AbstractStorage</text>
</g>
<!-- \\Dms\\Storage\\Storage&#45;&gt;\\Dms\\Storage\\AbstractStorage -->
<g id="edge10" class="edge"><title>\\Dms\\Storage\\Storage&#45;&gt;\\Dms\\Storage\\AbstractStorage</title>
<path fill="none" stroke="black" d="M1020.24,-1563.77C959.656,-1559.43 824.819,-1549.78 742.488,-1543.89"/>
<polygon fill="none" stroke="black" points="742.694,-1540.39 732.47,-1543.17 742.194,-1547.38 742.694,-1540.39"/>
</g>
<!-- \\Dms\\Storage\\StorageOption -->
<g id="node21" class="node"><title>\\Dms\\Storage\\StorageOption</title>
<polygon fill="none" stroke="black" points="1104.43,-1530 1000.43,-1530 1000.43,-1494 1104.43,-1494 1104.43,-1530"/>
<text text-anchor="middle" x="1052.43" y="-1509.2" font-family="Courier,monospace" font-size="11.00">StorageOption</text>
</g>
<!-- \\Dms\\Storage\\StorageOption&#45;&gt;\\Zend\\Stdlib\\AbstractOptions -->
<g id="edge14" class="edge"><title>\\Dms\\Storage\\StorageOption&#45;&gt;\\Zend\\Stdlib\\AbstractOptions</title>
<path fill="none" stroke="black" d="M1000.31,-1510.96C978.47,-1507.69 954.754,-1499.81 940.428,-1482 859.064,-1380.85 972.488,-410.381 884.428,-315 854.964,-283.086 807.976,-274.862 765.888,-275.266"/>
<polygon fill="none" stroke="black" points="765.779,-271.768 755.872,-275.522 765.958,-278.766 765.779,-271.768"/>
</g>
<!-- \\Dms\\Storage\\StorageInterface -->
<g id="node23" class="node"><title>\\Dms\\Storage\\StorageInterface</title>
<polygon fill="none" stroke="black" points="257.483,-1557 132.483,-1557 132.483,-1521 257.483,-1521 257.483,-1557"/>
<text text-anchor="middle" x="194.983" y="-1536.2" font-family="Courier,monospace" font-size="11.00">StorageInterface</text>
</g>
<!-- \\Dms\\Storage\\AbstractStorage&#45;&gt;\\Dms\\Storage\\StorageInterface -->
<g id="edge18" class="edge"><title>\\Dms\\Storage\\AbstractStorage&#45;&gt;\\Dms\\Storage\\StorageInterface</title>
<path fill="none" stroke="black" stroke-dasharray="1,5" d="M613.803,-1539C526.457,-1539 361.972,-1539 267.53,-1539"/>
<polygon fill="none" stroke="black" points="267.492,-1535.5 257.492,-1539 267.492,-1542.5 267.492,-1535.5"/>
</g>
<!-- \\Zend\\EventManager\\EventManagerAwareInterface -->
<g id="node36" class="node"><title>\\Zend\\EventManager\\EventManagerAwareInterface</title>
<ellipse fill="none" stroke="black" cx="194.983" cy="-342" rx="194.965" ry="18"/>
<text text-anchor="middle" x="194.983" y="-338.3" font-family="Times,serif" font-size="14.00" fill="gray">\Zend\EventManager\EventManagerAwareInterface</text>
</g>
<!-- \\Dms\\Storage\\AbstractStorage&#45;&gt;\\Zend\\EventManager\\EventManagerAwareInterface -->
<g id="edge17" class="edge"><title>\\Dms\\Storage\\AbstractStorage&#45;&gt;\\Zend\\EventManager\\EventManagerAwareInterface</title>
<path fill="none" stroke="black" stroke-dasharray="1,5" d="M664.907,-1520.68C610.864,-1384.84 272.786,-535.052 207.051,-369.82"/>
<polygon fill="none" stroke="black" points="210.234,-368.353 203.285,-360.355 203.73,-370.941 210.234,-368.353"/>
</g>
<!-- \\Dms\\FFmpeg\\FFmpeg -->
<g id="node24" class="node"><title>\\Dms\\FFmpeg\\FFmpeg</title>
<polygon fill="none" stroke="black" points="1080.93,-724 1023.93,-724 1023.93,-688 1080.93,-688 1080.93,-724"/>
<text text-anchor="middle" x="1052.43" y="-703.2" font-family="Courier,monospace" font-size="11.00">FFmpeg</text>
</g>
<!-- \\Dms\\Controller\\Plugin\\Dms -->
<g id="node25" class="node"><title>\\Dms\\Controller\\Plugin\\Dms</title>
<polygon fill="none" stroke="black" points="1079.43,-616 1025.43,-616 1025.43,-580 1079.43,-580 1079.43,-616"/>
<text text-anchor="middle" x="1052.43" y="-595.2" font-family="Courier,monospace" font-size="11.00">Dms</text>
</g>
<!-- \\Zend\\Mvc\\Controller\\Plugin\\AbstractPlugin -->
<g id="node32" class="node"><title>\\Zend\\Mvc\\Controller\\Plugin\\AbstractPlugin</title>
<ellipse fill="none" stroke="black" cx="673.197" cy="-126" rx="168.97" ry="18"/>
<text text-anchor="middle" x="673.197" y="-122.3" font-family="Times,serif" font-size="14.00" fill="gray">\Zend\Mvc\Controller\Plugin\AbstractPlugin</text>
</g>
<!-- \\Dms\\Controller\\Plugin\\Dms&#45;&gt;\\Zend\\Mvc\\Controller\\Plugin\\AbstractPlugin -->
<g id="edge12" class="edge"><title>\\Dms\\Controller\\Plugin\\Dms&#45;&gt;\\Zend\\Mvc\\Controller\\Plugin\\AbstractPlugin</title>
<path fill="none" stroke="black" d="M1025.26,-599.409C999.706,-599.239 961.653,-594.589 940.428,-571 815.057,-431.662 1017.33,-285.177 884.428,-153 874.864,-143.488 863.728,-136.146 851.668,-130.549"/>
<polygon fill="none" stroke="black" points="852.85,-127.249 842.275,-126.601 850.138,-133.702 852.85,-127.249"/>
</g>
<!-- \\Dms\\Controller\\Plugin\\DmsFactory -->
<g id="node26" class="node"><title>\\Dms\\Controller\\Plugin\\DmsFactory</title>
<polygon fill="none" stroke="black" points="1094.43,-562 1010.43,-562 1010.43,-526 1094.43,-526 1094.43,-562"/>
<text text-anchor="middle" x="1052.43" y="-541.2" font-family="Courier,monospace" font-size="11.00">DmsFactory</text>
</g>
<!-- \\Zend\\ServiceManager\\Factory\\FactoryInterface -->
<g id="node35" class="node"><title>\\Zend\\ServiceManager\\Factory\\FactoryInterface</title>
<ellipse fill="none" stroke="black" cx="673.197" cy="-72" rx="181.168" ry="18"/>
<text text-anchor="middle" x="673.197" y="-68.3" font-family="Times,serif" font-size="14.00" fill="gray">\Zend\ServiceManager\Factory\FactoryInterface</text>
</g>
<!-- \\Dms\\Controller\\Plugin\\DmsFactory&#45;&gt;\\Zend\\ServiceManager\\Factory\\FactoryInterface -->
<g id="edge16" class="edge"><title>\\Dms\\Controller\\Plugin\\DmsFactory&#45;&gt;\\Zend\\ServiceManager\\Factory\\FactoryInterface</title>
<path fill="none" stroke="black" stroke-dasharray="1,5" d="M1010.2,-546.804C986.469,-546.051 957.967,-540.7 940.428,-522 810.694,-383.68 1018.78,-232.835 884.428,-99 876.998,-91.5987 868.616,-85.5106 859.588,-80.5352"/>
<polygon fill="none" stroke="black" points="860.864,-77.2607 850.354,-75.9233 857.736,-83.523 860.864,-77.2607"/>
</g>
<!-- \\Dms\\Controller\\DocumentController -->
<g id="node27" class="node"><title>\\Dms\\Controller\\DocumentController</title>
<polygon fill="none" stroke="black" points="1121.43,-508 983.428,-508 983.428,-472 1121.43,-472 1121.43,-508"/>
<text text-anchor="middle" x="1052.43" y="-487.2" font-family="Courier,monospace" font-size="11.00">DocumentController</text>
</g>
<!-- \\Zend\\Mvc\\Controller\\AbstractActionController -->
<g id="node34" class="node"><title>\\Zend\\Mvc\\Controller\\AbstractActionController</title>
<ellipse fill="none" stroke="black" cx="673.197" cy="-18" rx="180.868" ry="18"/>
<text text-anchor="middle" x="673.197" y="-14.3" font-family="Times,serif" font-size="14.00" fill="gray">\Zend\Mvc\Controller\AbstractActionController</text>
</g>
<!-- \\Dms\\Controller\\DocumentController&#45;&gt;\\Zend\\Mvc\\Controller\\AbstractActionController -->
<g id="edge15" class="edge"><title>\\Dms\\Controller\\DocumentController&#45;&gt;\\Zend\\Mvc\\Controller\\AbstractActionController</title>
<path fill="none" stroke="black" d="M983.42,-484.635C967.245,-480.163 951.491,-472.601 940.428,-460 817.638,-320.136 1016.45,-176.182 884.428,-45 876.911,-37.531 868.425,-31.4007 859.283,-26.4024"/>
<polygon fill="none" stroke="black" points="860.84,-23.2678 850.327,-21.9503 857.724,-29.536 860.84,-23.2678"/>
</g>
<!-- \\Dms\\Service\\DmsService -->
<g id="node28" class="node"><title>\\Dms\\Service\\DmsService</title>
<polygon fill="none" stroke="black" points="1094.43,-428 1010.43,-428 1010.43,-392 1094.43,-392 1094.43,-428"/>
<text text-anchor="middle" x="1052.43" y="-407.2" font-family="Courier,monospace" font-size="11.00">DmsService</text>
</g>
</g>
</svg>
